<svg width="25" height="32" viewBox="0 0 25 32" fill="none" xmlns="http://www.w3.org/2000/svg">
<g id="fa-solid:award" clip-path="url(#clip0_1_235)">
<path id="Vector" d="M6.54257 22.6624C6.00186 22.1193 6.28372 22.2724 4.97954 21.9218C4.38781 21.7624 3.86763 21.4562 3.39723 21.0893L0.57421 28.0418C0.301054 28.7149 0.811276 29.4461 1.5343 29.4186L4.81279 29.293L7.06772 31.6855C7.5655 32.213 8.4391 32.0486 8.71226 31.3755L11.9509 23.3993C11.2764 23.7768 10.5279 23.998 9.75386 23.998C8.54052 23.998 7.40061 23.5237 6.54257 22.6624ZM24.3182 28.0418L21.4952 21.0893C21.0248 21.4568 20.5046 21.7624 19.9129 21.9218C18.6019 22.2743 18.8893 22.1205 18.3499 22.6624C17.4918 23.5237 16.3513 23.998 15.1379 23.998C14.3639 23.998 13.6154 23.7762 12.9409 23.3993L16.1795 31.3755C16.4527 32.0486 17.3269 32.213 17.8241 31.6855L20.0796 29.293L23.3581 29.4186C24.0811 29.4461 24.5914 28.7143 24.3182 28.0418ZM16.864 21.248C17.8147 20.2762 17.9236 20.3599 19.2776 19.9893C20.1419 19.7524 20.8176 19.0618 21.0491 18.178C21.5145 16.403 21.3938 16.6174 22.6637 15.3187C23.2965 14.6718 23.5435 13.7287 23.3121 12.8449C22.8473 11.0712 22.8467 11.3187 23.3121 9.54303C23.5435 8.65928 23.2965 7.71616 22.6637 7.06928C21.3938 5.77053 21.5145 5.98428 21.0491 4.20991C20.8176 3.32616 20.1419 2.63553 19.2776 2.39866C17.5428 1.92303 17.7519 2.04741 16.4807 0.748032C15.8479 0.101157 14.9251 -0.151968 14.0609 0.084907C12.3267 0.559907 12.5688 0.560532 10.8315 0.084907C9.96728 -0.151968 9.04452 0.100532 8.41172 0.748032C7.14177 2.04678 7.35083 1.92303 5.61546 2.39866C4.75119 2.63553 4.07545 3.32616 3.84399 4.20991C3.37919 5.98428 3.49928 5.77053 2.22932 7.06928C1.59652 7.71616 1.34888 8.65928 1.58097 9.54303C2.04577 11.3155 2.04639 11.068 1.58097 12.8443C1.3495 13.728 1.59652 14.6712 2.22932 15.3187C3.49928 16.6174 3.37857 16.403 3.84399 18.178C4.07545 19.0618 4.75119 19.7524 5.61546 19.9893C7.00799 20.3705 7.1119 20.3105 8.02843 21.248C8.85163 22.0899 10.134 22.2405 11.1234 21.6118C11.519 21.3595 11.9779 21.2255 12.4465 21.2255C12.9151 21.2255 13.3741 21.3595 13.7697 21.6118C14.7584 22.2405 16.0408 22.0899 16.864 21.248ZM6.57617 10.9955C6.57617 7.68116 9.20443 4.99428 12.4462 4.99428C15.688 4.99428 18.3163 7.68116 18.3163 10.9955C18.3163 14.3099 15.688 16.9968 12.4462 16.9968C9.20443 16.9968 6.57617 14.3099 6.57617 10.9955Z" fill="#00A0C1"/>
</g>
<defs>
<clipPath id="clip0_1_235">
<rect width="23.8933" height="32" fill="white" transform="translate(0.5)"/>
</clipPath>
</defs>
</svg>
