<svg width="30" height="27" viewBox="0 0 30 27" fill="none" xmlns="http://www.w3.org/2000/svg">
<g id="clarity:users-line" clip-path="url(#clip0_1_214)">
<path id="Vector" d="M14.9037 12.7042C17.5041 12.7042 19.5267 10.5695 19.5267 7.94969C19.5267 5.32987 17.4078 3.29224 14.8074 3.29224C12.2069 3.29224 10.1844 5.4269 10.1844 7.94969C10.1844 10.5695 12.3032 12.7042 14.9037 12.7042ZM14.8074 5.23284C14.9037 5.23284 14.9037 5.23284 14.8074 5.23284C16.3484 5.23284 17.6005 6.49423 17.6005 8.04672C17.6005 9.5992 16.3484 10.7636 14.8074 10.7636C13.2664 10.7636 12.1106 9.50217 12.1106 8.04672C12.1106 6.49423 13.3627 5.23284 14.8074 5.23284Z" fill="#00A0C1"/>
<path id="Vector_2" d="M29.158 12.1219C27.328 10.4724 24.9202 9.59911 22.4161 9.69614H21.6456C21.4529 10.4724 21.164 11.1516 20.7787 11.7338C21.3566 11.6367 21.8382 11.6367 22.4161 11.6367C24.246 11.5397 26.076 12.1219 27.5207 13.1892V20.1754H29.4469V12.413L29.158 12.1219Z" fill="#00A0C1"/>
<path id="Vector_3" d="M20.2009 3.48602C20.6825 2.32166 22.0309 1.73948 23.2829 2.22463C24.4387 2.70978 25.0166 4.0682 24.535 5.3296C24.1498 6.20287 23.2829 6.78505 22.4161 6.78505C22.2235 6.78505 21.9346 6.78505 21.7419 6.68802C21.8382 7.17317 21.8382 7.65832 21.8382 8.04644V8.62862C22.0309 8.62862 22.2235 8.72565 22.4161 8.72565C24.8239 8.72565 26.7502 6.78505 26.7502 4.45633C26.7502 2.03057 24.8239 0.0899658 22.5124 0.0899658C20.9714 0.0899658 19.623 0.866207 18.8525 2.22463C19.3341 2.51572 19.8157 2.90384 20.2009 3.48602Z" fill="#00A0C1"/>
<path id="Vector_4" d="M9.22124 11.8308C8.83598 11.2486 8.54705 10.5694 8.35442 9.79314H7.58392C5.07978 9.69611 2.67196 10.5694 0.842009 12.1219L0.55307 12.413V20.1754H2.47933V13.1892C4.02034 12.1219 5.75397 11.5397 7.58392 11.6367C8.16179 11.6367 8.73967 11.7337 9.22124 11.8308Z" fill="#00A0C1"/>
<path id="Vector_5" d="M7.5839 8.62897C7.77652 8.62897 7.96915 8.62897 8.16177 8.53194V7.94975C8.16177 7.4646 8.16177 6.97945 8.25809 6.59133C8.06546 6.68836 7.77652 6.68836 7.5839 6.68836C6.33183 6.68836 5.27239 5.62103 5.27239 4.35964C5.27239 3.09824 6.33183 2.03091 7.5839 2.03091C8.54703 2.03091 9.41384 2.61309 9.79909 3.48636C10.1843 3.00121 10.7622 2.51606 11.2438 2.12794C9.99172 0.0903051 7.39127 -0.588907 5.3687 0.672486C3.34613 1.93388 2.67194 4.5537 3.92401 6.59133C4.69451 7.85272 6.04289 8.62897 7.5839 8.62897Z" fill="#00A0C1"/>
<path id="Vector_6" d="M22.8013 17.9437L22.6086 17.6526C20.6824 15.5179 17.9856 14.2565 15.0962 14.3536C12.2069 14.2565 9.41378 15.5179 7.48752 17.6526L7.29489 17.9437V25.318C7.29489 26.1913 7.96908 26.9675 8.93221 26.9675H21.2603C22.1271 26.9675 22.8976 26.1913 22.8976 25.318V17.9437H22.8013ZM20.875 25.0269H9.22115V18.6229C10.7622 17.0704 12.881 16.2942 15.0962 16.2942C17.2151 16.1972 19.334 17.0704 20.875 18.6229V25.0269Z" fill="#00A0C1"/>
</g>
<defs>
<clipPath id="clip0_1_214">
<rect width="29" height="27" fill="white" transform="translate(0.5)"/>
</clipPath>
</defs>
</svg>
