<svg width="23" height="22" viewBox="0 0 23 22" fill="none" xmlns="http://www.w3.org/2000/svg">
<g id="icn bxs-star">
<path id="Vector" d="M20.6555 8.41243C20.5979 8.24262 20.4918 8.09341 20.3503 7.98322C20.2088 7.87303 20.0381 7.80669 19.8594 7.79238L14.6302 7.37688L12.3674 2.36786C12.2953 2.20653 12.1781 2.0695 12.0299 1.97332C11.8817 1.87714 11.7088 1.8259 11.5321 1.82581C11.3554 1.82571 11.1825 1.87675 11.0341 1.97277C10.8858 2.0688 10.7684 2.20569 10.6962 2.36694L8.43338 7.37688L3.20423 7.79238C3.02854 7.8063 2.86058 7.87054 2.72044 7.97742C2.5803 8.08429 2.47392 8.22928 2.41403 8.39503C2.35413 8.56079 2.34326 8.74028 2.38271 8.91205C2.42215 9.08383 2.51025 9.24059 2.63646 9.36361L6.50077 13.1307L5.13409 19.0487C5.0926 19.2278 5.1059 19.4153 5.17227 19.5868C5.23864 19.7583 5.35502 19.9058 5.50631 20.0103C5.6576 20.1149 5.8368 20.1715 6.02068 20.1729C6.20455 20.1743 6.3846 20.1204 6.53746 20.0182L11.5318 16.6886L16.5261 20.0182C16.6824 20.1219 16.8666 20.1753 17.0541 20.1712C17.2416 20.1671 17.4234 20.1057 17.5749 19.9952C17.7264 19.8847 17.8405 19.7305 17.9018 19.5532C17.963 19.376 17.9686 19.1842 17.9176 19.0037L16.24 13.1334L20.4005 9.38929C20.673 9.14347 20.7729 8.76007 20.6555 8.41243Z" fill="#F3CD03"/>
</g>
</svg>
